<?xml version="1.0" encoding="UTF-8"?>
<!DOCTYPE svg PUBLIC "-//W3C//DTD SVG 1.1//EN" "http://www.w3.org/Graphics/SVG/1.1/DTD/svg11.dtd">
<!-- Creator: CorelDRAW -->
<svg xmlns="http://www.w3.org/2000/svg" xml:space="preserve" width="242mm" height="37.2773mm" version="1.1" style="shape-rendering:geometricPrecision; text-rendering:geometricPrecision; image-rendering:optimizeQuality; fill-rule:evenodd; clip-rule:evenodd" viewBox="0 0 8560.74 1318.68" xmlns:xlink="http://www.w3.org/1999/xlink" xmlns:xodm="http://www.corel.com/coreldraw/odm/2003">
 <defs>
  <style type="text/css">
   <![CDATA[
    .str1 {stroke:#000099;stroke-width:0.27;stroke-miterlimit:22.9256}
    .str0 {stroke:#00CC00;stroke-width:2.7;stroke-miterlimit:22.9256}
    .fil2 {fill:none}
    .fil5 {fill:black}
    .fil7 {fill:#000099}
    .fil6 {fill:#33CC00}
    .fil4 {fill:#33CC00}
    .fil0 {fill:#DA121A}
    .fil1 {fill:#FCDD09}
    .fil3 {fill:white}
    .fil8 {fill:#2B2A29;fill-rule:nonzero}
   ]]>
  </style>
 </defs>
 <g id="Capa_x0020_1">
  <metadata id="CorelCorpID_0Corel-Layer"/>
  <polygon class="fil0" points="2405.5,1029.94 3254.49,269.38 3042.25,1029.94 "/>
  <polygon class="fil1" points="2228.62,764.63 3077.62,4.07 2865.37,764.63 "/>
  <polygon class="fil0" points="1768.75,870.75 2617.75,110.19 2405.5,870.75 "/>
  <polygon class="fil0" points="4174.24,1029.94 5023.24,269.38 4810.99,1029.94 "/>
  <g>
   <polygon class="fil2 str0" points="3997.37,764.63 4846.37,4.07 4634.12,764.63 "/>
   <polygon id="_1" class="fil3" points="3997.37,764.63 4846.37,4.07 4634.12,764.63 "/>
  </g>
  <polygon class="fil4" points="3537.49,870.75 4386.49,110.19 4174.24,870.75 "/>
  <polygon class="fil0" points="5942.99,1029.94 6791.99,269.38 6579.74,1029.94 "/>
  <polygon class="fil0" points="7711.74,1029.94 8560.74,269.38 8348.49,1029.94 "/>
  <polygon class="fil1" points="5766.12,764.63 6615.11,4.07 6402.87,764.63 "/>
  <polygon class="fil0" points="7534.86,764.63 8383.86,4.07 8171.61,764.63 "/>
  <polygon class="fil5" points="5306.24,870.75 6155.24,110.19 5942.99,870.75 "/>
  <polygon class="fil6" points="7074.99,870.75 7923.99,110.19 7711.74,870.75 "/>
  <polygon class="fil0" points="636.75,1029.95 1485.75,269.38 1273.5,1029.95 "/>
  <g>
   <polygon class="fil2 str1" points="459.87,764.63 1308.87,4.07 1096.62,764.63 "/>
   <polygon id="_1_0" class="fil3" points="459.87,764.63 1308.87,4.07 1096.62,764.63 "/>
  </g>
  <polygon class="fil7" points="-0,870.76 849,110.2 636.75,870.76 "/>
  <polygon class="fil8" points="356.63,1100.64 520.46,1100.64 520.46,1146.76 423.12,1146.76 423.12,1184.2 506.39,1184.2 506.39,1227.63 423.12,1227.63 423.12,1315.09 356.63,1315.09 "/>
  <path id="_1_1" class="fil8" d="M557.01 1315.09l0 -214.45 110.42 0c20.46,0 36.14,1.75 46.92,5.29 10.83,3.5 19.57,10.04 26.21,19.52 6.64,9.53 9.94,21.16 9.94,34.84 0,11.88 -2.55,22.17 -7.64,30.8 -5.04,8.68 -12.03,15.67 -20.97,21.07 -5.64,3.39 -13.43,6.24 -23.26,8.49 7.89,2.65 13.63,5.24 17.22,7.89 2.4,1.75 5.94,5.54 10.58,11.28 4.59,5.74 7.69,10.18 9.24,13.33l32.19 61.95 -74.87 0 -35.39 -65.39c-4.49,-8.49 -8.49,-13.98 -11.98,-16.52 -4.79,-3.3 -10.23,-4.94 -16.27,-4.94l-5.84 0 0 86.86 -66.49 0zm66.49 -127.29l28 0c3,0 8.89,-1 17.57,-2.95 4.39,-0.85 7.99,-3.1 10.73,-6.74 2.79,-3.64 4.2,-7.79 4.2,-12.48 0,-6.94 -2.2,-12.28 -6.59,-15.97 -4.39,-3.75 -12.63,-5.59 -24.76,-5.59l-29.15 0 0 43.73z"/>
  <path id="_2" class="fil8" d="M921.01 1279.75l-75.08 0 -10.78 35.34 -67.64 0 80.72 -214.45 72.53 0 80.37 214.45 -69.39 0 -10.73 -35.34zm-14.03 -46.42l-23.41 -77.07 -23.51 77.07 46.92 0z"/>
  <polygon class="fil8" points="2188.05,1100.64 2365.36,1100.64 2365.36,1146.46 2254.54,1146.46 2254.54,1180.61 2357.27,1180.61 2357.27,1224.34 2254.54,1224.34 2254.54,1266.57 2368.65,1266.57 2368.65,1315.09 2188.05,1315.09 "/>
  <path id="_1_2" class="fil8" d="M2392.96 1244.15l62.9 -3.94c1.35,10.18 4.15,17.97 8.34,23.26 6.84,8.64 16.57,12.98 29.25,12.98 9.43,0 16.72,-2.2 21.82,-6.64 5.14,-4.44 7.69,-9.58 7.69,-15.42 0,-5.54 -2.4,-10.53 -7.24,-14.92 -4.84,-4.39 -16.12,-8.49 -33.85,-12.43 -29.05,-6.49 -49.72,-15.18 -62.1,-26.01 -12.48,-10.78 -18.72,-24.56 -18.72,-41.33 0,-10.98 3.19,-21.37 9.59,-31.15 6.39,-9.83 15.97,-17.52 28.8,-23.11 12.83,-5.59 30.4,-8.39 52.71,-8.39 27.4,0 48.27,5.09 62.65,15.33 14.38,10.18 22.91,26.4 25.66,48.67l-62.3 3.69c-1.65,-9.74 -5.14,-16.82 -10.43,-21.21 -5.34,-4.44 -12.68,-6.64 -22.01,-6.64 -7.69,0 -13.53,1.65 -17.42,4.89 -3.89,3.24 -5.84,7.24 -5.84,11.93 0,3.39 1.6,6.44 4.74,9.18 3.04,2.84 10.43,5.44 22.11,7.89 28.95,6.24 49.67,12.58 62.15,18.97 12.53,6.39 21.67,14.28 27.36,23.76 5.69,9.43 8.54,20.02 8.54,31.75 0,13.73 -3.79,26.41 -11.38,38.04 -7.64,11.58 -18.22,20.42 -31.9,26.41 -13.63,5.99 -30.8,8.99 -51.57,8.99 -36.44,0 -61.7,-7.04 -75.73,-21.07 -14.03,-14.03 -21.96,-31.85 -23.81,-53.46z"/>
  <path id="_2_3" class="fil8" d="M2620.34 1100.64l110.22 0c24.01,0 41.98,5.69 53.96,17.13 11.93,11.43 17.92,27.7 17.92,48.82 0,21.67 -6.54,38.64 -19.57,50.82 -13.03,12.23 -32.94,18.32 -59.7,18.32l-36.34 0 0 79.37 -66.49 0 0 -214.45zm66.49 91.65l16.32 0c12.88,0 21.91,-2.25 27.11,-6.69 5.19,-4.44 7.79,-10.13 7.79,-17.07 0,-6.74 -2.25,-12.43 -6.79,-17.13 -4.49,-4.69 -12.98,-7.04 -25.46,-7.04l-18.97 0 0 47.92z"/>
  <polygon class="fil8" points="4022.46,1100.64 4088.95,1100.64 4088.95,1315.09 4022.46,1315.09 "/>
  <polygon id="_1_4" class="fil8" points="4121.35,1100.64 4322.92,1100.64 4322.92,1153.65 4255.23,1153.65 4255.23,1315.09 4189.04,1315.09 4189.04,1153.65 4121.35,1153.65 "/>
  <path id="_2_5" class="fil8" d="M4464.24 1279.75l-75.08 0 -10.78 35.34 -67.64 0 80.72 -214.45 72.53 0 80.37 214.45 -69.39 0 -10.73 -35.34zm-14.03 -46.42l-23.41 -77.07 -23.51 77.07 46.92 0z"/>
  <path class="fil8" d="M5851.78 1100.64l124.15 0c20.67,0 36.54,5.14 47.62,15.38 11.08,10.23 16.62,22.91 16.62,38.04 0,12.68 -3.94,23.56 -11.88,32.6 -5.24,6.09 -12.98,10.83 -23.11,14.38 15.42,3.69 26.7,10.03 34,19.07 7.24,9.04 10.88,20.37 10.88,34 0,11.13 -2.6,21.12 -7.74,30 -5.19,8.89 -12.28,15.87 -21.22,21.07 -5.59,3.19 -13.98,5.54 -25.21,6.99 -14.92,1.95 -24.81,2.95 -29.7,2.95l-114.41 0 0 -214.45zm66.79 84.16l28.9 0c10.33,0 17.57,-1.8 21.62,-5.34 4.04,-3.59 6.09,-8.73 6.09,-15.48 0,-6.24 -2.04,-11.13 -6.09,-14.62 -4.04,-3.54 -11.13,-5.29 -21.17,-5.29l-29.35 0 0 40.73zm0 84.16l33.79 0c11.43,0 19.47,-2.04 24.16,-6.09 4.69,-4.04 7.04,-9.43 7.04,-16.28 0,-6.34 -2.3,-11.43 -6.94,-15.27 -4.64,-3.84 -12.78,-5.79 -24.41,-5.79l-33.65 0 0 43.43z"/>
  <polygon id="_1_6" class="fil8" points="6084.45,1100.64 6261.76,1100.64 6261.76,1146.46 6150.94,1146.46 6150.94,1180.61 6253.67,1180.61 6253.67,1224.34 6150.94,1224.34 6150.94,1266.57 6265.05,1266.57 6265.05,1315.09 6084.45,1315.09 "/>
  <polygon id="_2_7" class="fil8" points="6300.74,1100.64 6366.93,1100.64 6366.93,1262.38 6470.57,1262.38 6470.57,1315.09 6300.74,1315.09 "/>
  <path class="fil8" d="M7619.93 1100.64l110.22 0c24.01,0 41.98,5.69 53.96,17.13 11.93,11.43 17.92,27.7 17.92,48.82 0,21.67 -6.54,38.64 -19.57,50.82 -13.03,12.23 -32.94,18.32 -59.7,18.32l-36.34 0 0 79.37 -66.49 0 0 -214.45zm66.49 91.65l16.32 0c12.88,0 21.91,-2.25 27.11,-6.69 5.19,-4.44 7.79,-10.13 7.79,-17.07 0,-6.74 -2.25,-12.43 -6.79,-17.13 -4.49,-4.69 -12.98,-7.04 -25.46,-7.04l-18.97 0 0 47.92z"/>
  <path id="_1_8" class="fil8" d="M7828.14 1208.02c0,-34.99 9.74,-62.25 29.25,-81.72 19.52,-19.52 46.67,-29.26 81.52,-29.26 35.69,0 63.19,9.59 82.51,28.7 19.32,19.17 28.95,46.03 28.95,80.52 0,25.06 -4.19,45.57 -12.63,61.6 -8.44,16.02 -20.67,28.5 -36.59,37.44 -15.97,8.94 -35.84,13.38 -59.65,13.38 -24.16,0 -44.18,-3.85 -60.05,-11.53 -15.82,-7.74 -28.7,-19.92 -38.54,-36.59 -9.83,-16.62 -14.78,-37.49 -14.78,-62.55zm66.19 0.15c0,21.61 4.04,37.19 12.08,46.62 8.09,9.43 19.07,14.17 32.95,14.17 14.22,0 25.31,-4.64 33.09,-13.88 7.84,-9.28 11.73,-25.86 11.73,-49.87 0,-20.17 -4.1,-34.89 -12.23,-44.18 -8.19,-9.34 -19.22,-13.98 -33.2,-13.98 -13.38,0 -24.16,4.74 -32.24,14.17 -8.14,9.43 -12.18,25.11 -12.18,46.92z"/>
  <path id="_2_9" class="fil8" d="M8086.91 1315.09l0 -214.45 110.42 0c20.46,0 36.14,1.75 46.92,5.29 10.83,3.5 19.57,10.04 26.21,19.52 6.64,9.53 9.94,21.16 9.94,34.84 0,11.88 -2.55,22.17 -7.64,30.8 -5.04,8.68 -12.03,15.67 -20.97,21.07 -5.64,3.39 -13.43,6.24 -23.26,8.49 7.89,2.65 13.63,5.24 17.22,7.89 2.4,1.75 5.94,5.54 10.58,11.28 4.59,5.74 7.69,10.18 9.24,13.33l32.19 61.95 -74.87 0 -35.39 -65.39c-4.49,-8.49 -8.49,-13.98 -11.98,-16.52 -4.79,-3.3 -10.23,-4.94 -16.27,-4.94l-5.84 0 0 86.86 -66.49 0zm66.49 -127.29l28 0c3,0 8.89,-1 17.57,-2.95 4.39,-0.85 7.99,-3.1 10.73,-6.74 2.79,-3.64 4.2,-7.79 4.2,-12.48 0,-6.94 -2.2,-12.28 -6.59,-15.97 -4.39,-3.75 -12.63,-5.59 -24.76,-5.59l-29.15 0 0 43.73z"/>
 </g>
</svg>